EMG
version=1
nRows=31
nColumns=17
inDegrees=no
endheader
time	EMG01_right_gast_med	EMG02_right_glut_max	EMG03_left_gast_med	EMG04_left_glut_max	EMG05_right_glut_med	EMG06_right_bic_fem	EMG07_right_rect_fem	EMG08_right_vast_lat	EMG09_right_vast_med	EMG10_right_tens_fasc_lat	EMG11_left_glut_med	EMG12_left_bic_fem	EMG13_left_rect_fem	EMG14_left_vast_lat	EMG15_left_vast_med	EMG16_left_tens_fasc_lat
      1.28000000	     83.97097778	     29.67236519	    -17.11614227	     21.62907028	     57.35657501	     -4.52935123	    -10.79252243	     -4.11055183	      3.16391945	      6.42010689	     12.50832272	     21.87793159	     -9.02847862	     38.22501755	     61.59771729	     63.76869965
      1.29000000	    618.95556641	     25.49202538	     18.38332748	    -79.95837402	     49.58035278	     -6.25257015	      2.02816391	     -6.27168369	    -16.06770515	     11.54896641	    -12.65296936	    -18.64321899	    -63.75261688	     37.19859695	    115.26865387	   -138.70803833
      1.30000000	   -390.08963013	      7.96885395	      4.76785946	   -101.47148895	     41.48143768	    -10.06890106	     56.17948914	    -14.29217720	    -38.55026627	    -14.90326595	     22.92494202	    -21.54543304	    -49.16070938	     14.87324333	    105.06124878	   -233.05694580
      1.31000000	     31.40324020	      2.82881927	     -6.93466949	    -67.97271729	     -7.43092775	     -6.22347879	    -34.58439636	    -33.62334061	    -29.32887459	    -18.44964981	     -3.56666279	    -11.53225708	    -58.05593109	     59.81365585	     42.12812042	   -357.91488647
      1.32000000	     79.54624939	     10.53638268	      2.48927665	    -37.85794830	    -57.06357193	     -8.42396641	      6.42052126	    -22.26591492	    -34.64945602	     65.44377136	    -33.85223770	   -103.14978790	    -19.91766548	     -2.47747135	     71.63426971	   -242.54029846
      1.33000000	     29.40014267	     19.53660011	     -6.19281197	     34.37936783	    -50.24816132	    -14.82160759	     27.77792549	    -15.23169804	    -42.71697235	    -12.49806404	      3.69556379	     13.09217644	      8.16903496	     94.64432526	     24.02096176	    -40.29776764
      1.34000000	     21.53195190	     25.52332115	     16.16665459	    -40.02624130	    -48.36544418	    -14.34062672	    -11.92170238	    -15.27006340	    -35.18054199	    -85.27408600	    -62.09832001	    -33.00783539	    -75.06345367	     19.53385162	   -114.82765961	     62.87464142
      1.35000000	     16.54935837	     20.29567337	     12.50128555	     -9.90937710	    -16.38058281	    -10.29245567	      0.30224532	     -5.45847130	    -42.63972092	    -67.18585205	    -22.20310593	    207.21276855	     55.12702942	      7.17822361	    -67.97249603	     74.55042267
      1.36000000	      0.35841572	     11.44754887	     54.00763702	     82.23402405	    437.82333374	      0.83193982	      0.74435389	     -6.58417177	    -36.79220963	    -32.31601715	     68.08494568	    -88.67063904	    -16.96710205	    -27.15301132	     23.58880043	     41.64368057
      1.37000000	      6.57087231	      1.88941216	    -75.09918213	    205.71827698	    345.20333862	     -8.74502850	      2.77588630	     -0.50435209	    -23.70739555	     14.10992336	     14.33367348	   -132.45710754	     25.27600479	    -58.83548737	    -32.73757553	     -2.33163404
      1.38000000	      8.57925987	     -0.01221561	    -63.44359207	    184.14411926	   -173.79615784	      6.07230473	    -13.30420208	    -13.13212013	     -9.97401524	    196.21339417	     16.08885002	    -57.16403198	     32.77802658	   -141.28352356	   -118.70785522	   -211.56015015
      1.39000000	     -7.35682011	      2.00710988	    -21.22240448	    119.90667725	   -459.29458618	     -5.32916784	     -3.19506359	     -4.71273375	    -13.71361065	   -109.23746490	     11.23499107	    -23.43737221	     25.19684601	     -6.14893246	   -125.87917328	   -211.97816467
      1.40000000	     -5.21448660	     14.90526104	     -9.57296944	     -7.10465717	   -286.83850098	     -3.06992912	      1.15505004	     12.27330971	    -22.70015526	     -8.12480545	     -5.82587004	     17.59706688	     18.71316528	      6.98044443	     52.71707535	   -119.24992371
      1.41000000	     -9.52206516	     22.82178879	      9.79323769	   -156.38922119	    192.26545715	      6.44334936	     -2.48662329	     16.78949928	     24.57471657	     25.31872749	    -42.97333145	    -55.76128387	     38.07794571	      6.64894247	    131.09504700	     43.63898087
      1.42000000	    -10.00280476	     16.31298065	     11.24805546	   -165.33131409	    224.28077698	     16.62931824	     -6.44580269	     16.05055237	     56.56592178	      8.15808392	     38.05292511	    -25.89494514	    -89.07941437	    -59.02812576	     36.29163742	    113.21124268
      1.43000000	    -11.06684113	      2.62292194	     13.51597881	   -180.15808105	   -139.51170349	     17.27279472	      7.47172880	      6.48825502	     79.82076263	    -21.48069572	     10.40562153	     -9.12148571	    -10.88701820	     19.08505249	    228.07374573	    108.95977783
      1.44000000	     -4.36088276	     -3.86964869	     -7.16249275	   -132.23718262	   -348.55578613	     20.32472229	     -2.37046337	     -2.14996219	     50.38909912	    -20.72069359	      1.90958619	     -4.70283794	    -74.12574768	     55.20084000	    146.81925964	     42.37204361
      1.45000000	     -5.87391186	     11.07726192	    -20.71826363	    -25.82399940	   -254.62733459	     33.64390182	     43.33079147	    -16.77920151	     25.74561691	     88.55456543	     33.48961258	     31.24706841	    -14.19240189	     73.14964294	     65.49243164	    -21.64603233
      1.46000000	     -1.94757700	     19.78615189	     -9.94009686	    104.43586731	     56.62717438	     14.29966640	    -49.05472183	    -17.71794319	     27.79048538	    -17.05059433	     -1.01026344	     49.51921463	     23.22855377	     13.45987701	    -31.72635460	     -6.04327631
      1.47000000	     -2.51770020	     49.21667099	    -15.47832870	    178.00198364	    350.05242920	    -17.31406212	    -24.13877869	     -8.11005211	    130.88838196	    -24.89146996	    -27.35663605	     39.54142761	     -2.78460312	    -74.65505981	   -267.78579712	    111.08776855
      1.48000000	    -22.80331230	    116.99681854	      9.16273308	    184.72268677	    449.90097046	      0.89396572	    -10.03312206	     21.65445518	     49.10621262	    -46.18675995	     45.83061981	     13.14266396	     43.46594620	     -3.46175051	   -418.47497559	    164.79374695
      1.49000000	    -31.80659676	     68.79878235	    -17.66393661	    106.53569794	    142.13291931	     39.69801331	     -9.40579510	     30.04700470	   -229.63899231	    -25.14850235	      5.96433163	    -11.06835270	     12.52005196	    -34.14578247	   -203.04431152	    189.71290588
      1.50000000	    -52.36657715	    -58.57523727	     -5.71970463	    -10.55987263	   -110.52616119	    -52.52470016	      4.87398386	     -5.44299841	   -170.02870178	    -45.58390427	     -9.85173988	    -10.08197784	     35.84563828	     24.33304024	      0.02394295	    191.61698914
      1.51000000	    -69.90089417	   -260.44927979	    215.33695984	    -89.85739899	   -159.64874268	    -89.85739899	      7.71912527	    -36.32157135	   -112.95627594	    -94.71452332	     -1.59772563	    -19.64894295	     16.71140289	      0.92610192	    -52.51514435	    289.77435303
      1.52000000	    -66.67280579	   -469.85626221	    -93.29969025	   -135.48446655	   -126.49847412	    -39.85427856	     17.36319351	    -53.92786026	    -72.45224762	   -127.09250641	    -15.98370361	    -14.67039204	     18.12844276	     -1.81862855	    -97.52498627	    405.02917480
      1.53000000	    -47.20137787	   -413.51318359	   -110.11332703	   -162.80586243	   -122.39823914	    -55.11869049	     16.62452126	    -47.33312988	    -25.55636787	     65.52314758	    -13.81215286	    -10.94637394	      9.40458775	     13.57993698	     81.45933533	    391.54418945
      1.54000000	    -16.85324287	   -228.40602112	      1.49302948	   -166.19459534	   -193.24960327	      5.23224354	      8.56026840	    -36.52604675	     42.83591080	     18.92835808	     -8.29763603	    -10.58331108	     13.40727043	    -11.80922318	    109.16326141	    237.67160034
      1.55000000	      4.06838083	    -53.15602112	     15.10119629	    -86.47423553	   -255.87400818	     18.61595154	      0.62706000	    -30.98913193	     33.51184082	     44.57358551	     -6.18992519	     -4.82229900	     17.55601883	      7.75006580	     28.23663139	    -15.46953201
      1.56000000	     14.32199764	     48.70686340	     57.29509735	    -13.65505123	   -226.65856934	     14.82941723	     -0.09631291	    -47.87922287	     26.04433441	     79.95607758	    -22.75018883	      0.01538289	      4.99028254	     14.60939026	    -24.93318176	   -173.64309692
      1.57000000	     24.18774986	     95.94706726	     48.68205643	     58.45332718	    -74.25508118	     13.18993950	     -1.76022792	    -52.99445343	     38.66765976	    -82.32792664	      0.04549110	     -5.44784880	      8.93405342	     -5.32509804	      2.45135260	   -274.60025024
      1.58000000	     22.10181999	    170.37394714	    174.81701660	    157.61889648	     27.58353043	     11.25796318	      0.94739419	    -39.81761169	     34.14678574	   -142.16278076	     -1.98462701	     -8.41373062	     -0.23156881	     -6.53043175	     58.94536209	   -290.45440674
